<?xml version="1.0" encoding="UTF-8" standalone="no"?>
<!DOCTYPE svg PUBLIC "-//W3C//DTD SVG 20010904//EN"
              "http://www.w3.org/TR/2001/REC-SVG-20010904/DTD/svg10.dtd">

<svg xmlns="http://www.w3.org/2000/svg"
     width="304.801mm" height="304.801mm"
     viewBox="0 0 1200 1200">
  <path id="Selection"
        fill="none" stroke="black" stroke-width="1"
        d="M 391.00,1019.00
           C 393.12,999.12 422.18,1003.98 436.00,1004.00
             436.00,1004.00 466.72,1005.63 466.72,1005.63
             466.72,1005.63 484.00,1004.83 484.00,1004.83
             484.00,1004.83 493.00,1004.83 493.00,1004.83
             499.31,1003.37 511.38,997.47 515.82,992.90
             519.96,988.63 522.94,982.52 525.04,977.00
             531.55,959.85 530.60,946.92 523.73,930.00
             520.38,921.77 515.04,915.64 510.61,908.00
             510.61,908.00 503.95,896.00 503.95,896.00
             487.11,869.26 470.77,850.10 460.73,819.04
             460.73,819.04 454.93,796.96 454.93,796.96
             454.93,796.96 445.85,766.00 445.85,766.00
             444.63,761.57 441.79,747.40 439.00,745.00
             439.73,737.99 437.21,730.86 436.34,723.83
             436.34,723.83 431.91,683.00 431.91,683.00
             431.91,683.00 431.00,673.00 431.00,673.00
             430.90,664.51 433.13,645.09 435.29,637.00
             435.29,637.00 440.57,620.00 440.57,620.00
             440.57,620.00 447.87,597.00 447.87,597.00
             447.87,597.00 460.33,568.00 460.33,568.00
             460.33,568.00 466.67,555.00 466.67,555.00
             466.67,555.00 475.63,534.00 475.63,534.00
             475.63,534.00 490.67,504.00 490.67,504.00
             494.93,493.96 498.87,483.58 501.62,473.00
             501.62,473.00 512.27,434.00 512.27,434.00
             513.36,431.38 519.99,419.64 521.79,417.67
             528.12,410.70 539.10,406.51 548.42,408.96
             551.70,409.82 555.22,412.26 558.00,414.18
             561.58,416.66 564.68,419.25 567.01,423.00
             568.53,425.45 569.41,428.31 570.42,431.00
             576.89,448.13 575.21,459.15 575.00,477.00
             574.88,486.71 572.62,490.34 569.74,499.00
             564.68,514.23 559.38,525.87 551.88,540.00
             551.88,540.00 543.86,555.00 543.86,555.00
             543.86,555.00 538.14,569.00 538.14,569.00
             538.14,569.00 525.84,597.00 525.84,597.00
             525.84,597.00 520.26,614.00 520.26,614.00
             520.26,614.00 516.75,624.00 516.75,624.00
             511.81,641.51 509.06,659.03 506.72,677.00
             506.72,677.00 504.00,705.00 504.00,705.00
             504.00,705.00 504.00,739.00 504.00,739.00
             504.02,754.18 510.57,780.48 515.66,795.00
             515.66,795.00 523.59,814.00 523.59,814.00
             525.31,817.90 526.35,821.66 530.00,824.00
             530.42,831.88 542.39,848.91 547.07,856.00
             554.53,867.28 565.64,881.80 576.29,890.17
             587.16,898.71 606.76,907.06 620.00,911.58
             629.34,914.77 643.18,918.76 653.00,918.99
             655.34,919.04 658.77,919.07 660.96,918.35
             667.51,916.20 669.58,909.03 666.59,903.17
             664.86,899.79 658.08,894.11 655.09,891.04
             655.09,891.04 631.91,864.83 631.91,864.83
             622.40,850.95 617.08,830.29 614.44,813.83
             614.44,813.83 612.15,803.00 612.15,803.00
             609.40,788.51 609.43,779.44 612.15,765.00
             614.54,752.81 614.39,751.83 621.00,741.00
             631.82,752.45 632.97,768.31 639.95,782.00
             639.95,782.00 656.57,814.00 656.57,814.00
             656.57,814.00 685.18,862.00 685.18,862.00
             693.44,875.94 701.27,892.70 712.75,904.25
             725.68,917.24 733.48,926.01 751.00,933.00
             756.38,935.15 762.10,937.61 768.04,936.64
             778.14,935.00 777.24,926.78 776.28,919.00
             775.77,914.86 776.20,914.22 774.69,910.00
             774.69,910.00 759.36,869.00 759.36,869.00
             759.36,869.00 751.49,838.00 751.49,838.00
             751.49,838.00 749.37,831.00 749.37,831.00
             749.37,831.00 747.87,817.00 747.87,817.00
             747.87,817.00 741.95,776.04 741.95,776.04
             741.95,776.04 741.95,764.00 741.95,764.00
             741.95,764.00 740.73,725.54 740.73,725.54
             740.73,725.54 742.00,671.00 742.00,671.00
             742.00,671.00 743.04,651.00 743.04,651.00
             743.04,651.00 743.04,633.00 743.04,633.00
             743.04,633.00 744.00,617.00 744.00,617.00
             744.00,617.00 747.17,583.00 747.17,583.00
             747.17,583.00 751.21,548.00 751.21,548.00
             751.21,548.00 756.83,506.00 756.83,506.00
             756.83,506.00 758.17,490.00 758.17,490.00
             758.86,483.85 760.53,481.47 760.26,474.00
             759.98,466.28 760.43,466.04 761.00,459.00
             761.00,459.00 761.00,450.00 761.00,450.00
             761.00,450.00 762.97,418.00 762.97,418.00
             762.97,418.00 762.97,355.00 762.97,355.00
             762.97,355.00 762.00,327.00 762.00,327.00
             761.97,306.54 761.11,293.81 757.61,273.58
             757.61,273.58 755.12,260.00 755.12,260.00
             749.75,239.55 739.97,217.29 727.80,200.00
             727.80,200.00 719.00,188.96 719.00,188.96
             713.15,181.61 707.92,173.71 700.82,167.42
             682.20,150.94 658.71,142.29 634.00,142.00
             620.33,141.84 605.25,141.57 592.00,144.89
             580.53,147.77 569.08,154.77 559.00,160.94
             552.47,164.94 545.97,168.33 539.99,173.25
             539.99,173.25 520.73,192.60 520.73,192.60
             520.73,192.60 514.17,198.27 514.17,198.27
             495.74,215.73 473.80,239.43 450.00,249.24
             440.87,253.00 427.79,254.74 417.91,255.15
             417.91,255.15 402.00,256.96 402.00,256.96
             402.00,256.96 392.00,256.41 392.00,256.41
             392.00,256.41 375.00,257.91 375.00,257.91
             343.63,260.06 313.42,261.69 286.00,279.50
             275.62,286.24 267.53,291.58 260.35,302.00
             258.36,304.88 255.72,308.50 255.24,312.00
             254.23,319.28 260.73,324.98 267.83,323.76
             267.83,323.76 287.00,315.94 287.00,315.94
             302.60,310.58 323.50,305.18 340.00,305.00
             374.32,304.64 407.61,315.04 439.00,328.21
             451.76,333.56 470.83,342.83 479.24,354.00
             492.03,371.00 493.85,394.63 494.27,415.11
             494.49,425.29 490.01,442.89 487.38,453.00
             487.38,453.00 480.91,478.00 480.91,478.00
             480.91,478.00 457.89,530.00 457.89,530.00
             457.89,530.00 450.96,547.00 450.96,547.00
             450.96,547.00 440.49,570.00 440.49,570.00
             440.49,570.00 435.86,579.00 435.86,579.00
             431.05,589.73 418.76,625.51 416.45,637.00
             413.05,653.86 414.26,666.55 414.17,683.27
             414.08,697.90 414.90,703.62 416.92,717.91
             416.92,717.91 418.43,731.00 418.43,731.00
             421.58,749.78 427.32,767.72 432.45,786.00
             432.45,786.00 435.84,801.09 435.84,801.09
             435.84,801.09 439.98,814.00 439.98,814.00
             444.40,828.45 447.48,839.22 454.37,853.00
             463.16,870.57 475.31,886.66 486.16,903.00
             486.16,903.00 496.20,920.00 496.20,920.00
             496.20,920.00 505.60,934.00 505.60,934.00
             518.97,959.51 505.96,991.94 474.83,992.15
             474.83,992.15 462.00,992.15 462.00,992.15
             462.00,992.15 451.00,992.82 451.00,992.82
             451.00,992.82 430.00,991.83 430.00,991.83
             420.24,990.90 400.88,989.47 392.00,993.36
             380.79,998.27 374.10,1010.98 372.31,1022.58
             371.65,1026.84 370.29,1032.07 374.30,1035.26
             377.23,1037.59 381.76,1036.75 385.28,1036.86
             385.28,1036.86 408.00,1037.94 408.00,1037.94
             408.00,1037.94 539.01,1037.94 539.01,1037.94
             545.50,1037.82 556.31,1039.08 561.66,1035.00
             566.17,1031.56 565.70,1025.07 560.89,1022.14
             556.41,1019.40 547.21,1019.22 542.00,1019.26
             542.00,1019.26 504.28,1019.26 504.28,1019.26
             504.28,1019.26 495.00,1019.88 495.00,1019.88
             495.00,1019.88 421.00,1019.88 421.00,1019.88
             421.00,1019.88 391.00,1019.00 391.00,1019.00 Z
           M 867.00,406.00
           C 867.00,406.00 867.00,497.00 867.00,497.00
             873.29,499.97 879.94,507.94 885.00,513.00
             885.00,513.00 918.00,546.00 918.00,546.00
             918.00,546.00 1002.00,630.00 1002.00,630.00
             1012.24,640.24 1040.04,668.87 1050.00,676.00
             1050.00,676.00 924.00,802.00 924.00,802.00
             924.00,802.00 887.00,839.00 887.00,839.00
             881.74,844.26 873.35,854.00 867.00,857.00
             867.00,857.00 867.00,918.00 867.00,918.00
             867.00,918.00 870.00,946.00 870.00,946.00
             870.00,946.00 891.00,926.00 891.00,926.00
             891.00,926.00 928.00,889.00 928.00,889.00
             928.00,889.00 1071.00,745.00 1071.00,745.00
             1071.00,745.00 1115.00,701.00 1115.00,701.00
             1115.00,701.00 1140.00,677.00 1140.00,677.00
             1140.00,677.00 1077.00,614.00 1077.00,614.00
             1077.00,614.00 952.00,489.00 952.00,489.00
             952.00,489.00 895.00,432.00 895.00,432.00
             888.79,425.79 873.82,409.22 867.00,406.00 Z
           M 303.00,407.00
           C 298.52,413.26 286.05,424.95 280.00,431.00
             280.00,431.00 239.00,472.00 239.00,472.00
             239.00,472.00 109.00,602.00 109.00,602.00
             109.00,602.00 58.00,653.00 58.00,653.00
             58.00,653.00 44.00,667.00 44.00,667.00
             42.22,668.78 37.94,672.76 37.17,675.00
             35.55,679.69 47.69,689.69 51.00,693.00
             51.00,693.00 100.00,742.00 100.00,742.00
             100.00,742.00 236.00,878.00 236.00,878.00
             236.00,878.00 282.00,924.00 282.00,924.00
             282.00,924.00 304.00,946.00 304.00,946.00
             305.86,941.31 305.00,925.90 305.00,920.00
             305.00,920.00 305.00,864.00 305.00,864.00
             304.98,852.78 299.72,850.72 292.00,843.00
             292.00,843.00 262.00,813.00 262.00,813.00
             262.00,813.00 198.00,749.00 198.00,749.00
             198.00,749.00 155.72,707.49 155.72,707.49
             155.72,707.49 124.00,677.00 124.00,677.00
             124.00,677.00 260.00,541.00 260.00,541.00
             260.00,541.00 293.00,508.00 293.00,508.00
             300.33,500.67 304.98,499.38 305.00,489.00
             305.00,489.00 305.00,434.00 305.00,434.00
             305.00,434.00 304.00,417.00 304.00,417.00
             303.99,413.41 304.34,410.39 303.00,407.00 Z" />
</svg>
